<svg width="48" height="48" viewBox="0 0 48 48" fill="none" xmlns="http://www.w3.org/2000/svg">
    <path d="M24.0001 6.02301C13.8216 6.02301 5.56799 14.2752 5.56799 24.4552C5.56799 32.5989 10.8493 39.5082 18.173 41.9454C19.0942 42.116 19.4325 41.5455 19.4325 41.0586C19.4325 40.6192 19.4152 39.1672 19.4074 37.6271C14.2796 38.742 13.1975 35.4523 13.1975 35.4523C12.359 33.3218 11.1509 32.7552 11.1509 32.7552C9.4786 31.6112 11.277 31.6348 11.277 31.6348C13.1278 31.7647 14.1024 33.5342 14.1024 33.5342C15.7465 36.352 18.4145 35.5374 19.4663 35.0664C19.6318 33.8752 20.1094 33.0619 20.6366 32.6017C16.5425 32.1357 12.2388 30.5551 12.2388 23.4925C12.2388 21.4801 12.9588 19.8358 14.1379 18.545C13.9465 18.0807 13.3156 16.2061 14.3164 13.6671C14.3164 13.6671 15.8643 13.1717 19.3867 15.5565C20.8569 15.1481 22.4337 14.9434 24.0001 14.9363C25.5666 14.9434 27.1447 15.148 28.6176 15.5565C32.1357 13.1719 33.6814 13.6672 33.6814 13.6672C34.6846 16.206 34.0535 18.0808 33.8621 18.545C35.0439 19.8358 35.759 21.4801 35.759 23.4925C35.759 30.572 31.4471 32.1308 27.3427 32.5871C28.0038 33.1591 28.5929 34.2808 28.5929 36.0005C28.5929 38.4666 28.5716 40.4515 28.5716 41.0586C28.5716 41.5492 28.9033 42.124 29.8376 41.9428C37.1573 39.503 42.432 32.5963 42.432 24.4553C42.432 14.2752 34.1795 6.02301 24.0001 6.02301Z" fill="#161614"/>
</svg>
